# xmcd
#
# Track frame offsets:
#	150
#	14174
#	27546
#	40031
#	53552
#	73547
#	92431
#	112388
#	126465
#	139261
#	148879
#	166844
#	187108
#
# Disc length: 2660 seconds
#
# Revision: 1
# Processed by: cddbd v1.5.2PL0 Copyright (c) Steve Scherf et al.
# Submitted via: audiograbber 1.83.01
#
DISCID=c60a620d
DTITLE=Diversen Artiesten - Westerhout blijft
DYEAR=1900
DGENRE=pop
TTITLE0=Diversen Artiesten - Westerhout zaterdagmorgen
TTITLE1=Diversen Artiesten - Blijft nog een paar honderd jaar
TTITLE2=Diversen Artiesten - De strijd voor het behoud
TTITLE3=Diversen Artiesten - Te gek voor woorden
TTITLE4=Diversen Artiesten - Geen randweg
TTITLE5=Diversen Artiesten - Godsgeklaagd
TTITLE6=Diversen Artiesten - Westerhout
TTITLE7=Diversen Artiesten - Niemand zoals Frans Koster
TTITLE8=Diversen Artiesten - Dwarsligger Pim
TTITLE9=Diversen Artiesten - Gedachte
TTITLE10=Diversen Artiesten - Westerhoutsonate
TTITLE11=Diversen Artiesten - Geen randweg (intr.)
TTITLE12=Diversen Artiesten - Nog meer gedachten
EXTD=
EXTT0=
EXTT1=
EXTT2=
EXTT3=
EXTT4=
EXTT5=
EXTT6=
EXTT7=
EXTT8=
EXTT9=
EXTT10=
EXTT11=
EXTT12=
PLAYORDER=
